# xmcd
#
# Track frame offsets:
#	150
#	23062
#	44276
#	68134
#	99334
#	124084
#	147456
#	166532
#
# Disc length: 2519 seconds
#
# Revision: 0
# Processed by: cddbd v1.5.2PL0 Copyright (c) Steve Scherf et al.
# Submitted via: audiograbber 1.83.01
#
DISCID=6109d508
DTITLE=Groza - Kör Kilavuz
DYEAR=2009
DGENRE=Black Metal
TTITLE0=Kör Kilavuz
TTITLE1=Yalnizlik
TTITLE2=Denizlere Dönecegim
TTITLE3=Öldüm Ben
TTITLE4=Belki Kurtulursun
TTITLE5=Melekler Susmus
TTITLE6=Anlamadilar
TTITLE7=Eski Bir Söz
EXTD=
EXTT0=
EXTT1=
EXTT2=
EXTT3=
EXTT4=
EXTT5=
EXTT6=
EXTT7=
PLAYORDER=
